<svg xmlns="http://www.w3.org/2000/svg" version="1.1" xmlns:xlink="http://www.w3.org/1999/xlink" xmlns:svgjs="http://svgjs.dev/svgjs" width="1500" height="287" viewBox="0 0 1500 287"><g transform="matrix(1,0,0,1,-0.9090909090909918,0.1949632293613206)"><svg viewBox="0 0 396 76" data-background-color="#ffffff" preserveAspectRatio="xMidYMid meet" height="287" width="1500" xmlns="http://www.w3.org/2000/svg" xmlns:xlink="http://www.w3.org/1999/xlink"><g id="tight-bounds" transform="matrix(1,0,0,1,0.2400000000000091,-0.051627893489410326)"><svg viewBox="0 0 395.52 76.10325578697879" height="76.10325578697879" width="395.52"><g><svg viewBox="0 0 670.4038732247482 128.99453237410071" height="76.10325578697879" width="395.52"><g transform="matrix(1,0,0,1,274.8838732247482,0)"><svg viewBox="0 0 395.52 128.99453237410071" height="128.99453237410071" width="395.52"><g id="textblocktransform"><svg viewBox="0 0 395.52 128.99453237410071" height="128.99453237410071" width="395.52" id="textblock"><g><svg viewBox="0 0 395.52 128.99453237410071" height="128.99453237410071" width="395.52"><g transform="matrix(1,0,0,1,0,0)"><svg width="395.52" viewBox="-0.45 -29.6 104.25 33.99999999999999" height="128.99453237410071" data-palette-color="#01ff70"><path d="M10.6-4.05L10.6-4.05Q6.1 4.4 2.1 4.4L2.1 4.4Q-0.45 4.4-0.45 1.8L-0.45 1.8Q-0.45 0.25 0.75-1.65L0.75-1.65Q2.8-4.85 7.13-9.53 11.45-14.2 14.45-16.95L14.45-16.95 16.35-23.4Q13.85-21.05 9.85-20.65L9.85-20.65Q9.35-20.6 9.33-20.95 9.3-21.3 9.75-21.4L9.75-21.4 9.95-21.45Q12.1-21.65 14.38-23.7 16.65-25.75 17.8-28.4L17.8-28.4Q18-29.05 19.55-29.03 21.1-29 21.05-28.4L21.05-28.4 17.6-19.85Q24.4-25.6 27.35-25.75L27.35-25.75Q27.7-25.75 28.05-25.75L28.05-25.75Q32-25.75 33.5-23.15L33.5-23.15Q34.8-20.95 34.8-18L34.8-18Q34.8-13.6 32.1-5.4L32.1-5.4Q31.65-3.95 31.73-3.93 31.8-3.9 32-4.23 32.2-4.55 32.63-5.2 33.05-5.85 34.65-8.5L34.65-8.5Q40.4-18.15 46.35-24.6L46.35-24.6Q48.3-26.65 50.25-26.65L50.25-26.65Q51.4-26.65 52-25.85 52.6-25.05 52.6-24.1 52.6-23.15 52.18-21.45 51.75-19.75 49.6-14.35L49.6-14.35Q46.95-7.75 46.95-3.55L46.95-3.55Q46.95-0.3 48.75-0.3L48.75-0.3Q50.05-0.3 52.2-1.95L52.2-1.95Q55.5-4.7 57.5-7.4L57.5-7.4Q57.75-7.75 57.98-7.55 58.2-7.35 58.2-7.23 58.2-7.1 58.1-7L58.1-7Q57.15-5.5 55.1-3.4L55.1-3.4Q51.75 0.15 49.7 0.8L49.7 0.8Q48.7 1.15 47.75 1.15L47.75 1.15Q44.45 1.1 44.45-3.6L44.45-3.6Q44.45-6.05 45.05-8.35 45.65-10.65 46.03-11.9 46.4-13.15 47-14.83 47.6-16.5 48-17.4L48-17.4Q49.3-20.65 49.6-21.45 49.9-22.25 49.9-22.83 49.9-23.4 49.6-23.63 49.3-23.85 48.8-23.85 48.3-23.85 47.25-22.95L47.25-22.95Q43.4-19.65 38.58-12.55 33.75-5.45 31.8-1.4L31.8-1.4Q31.4-0.55 31-0.55 30.6-0.55 30.15-1.28 29.7-2 29.7-2.33 29.7-2.65 29.75-2.75L29.75-2.75Q31.05-6.05 31.63-9.8 32.2-13.55 32.2-15.95L32.2-15.95Q32.2-24.4 28.55-24.4L28.55-24.4Q25.15-24.4 16.2-16.2L16.2-16.2Q15.75-14.9 14.25-11.5L14.25-11.5Q12.2-7.05 10.6-4.05ZM2.25 2.7L2.25 2.7Q5.35 2.7 9.85-5.95L9.85-5.95Q12.35-10.75 13.45-13.75L13.45-13.75Q10.8-11.25 7.6-7.63 4.4-4 3.05-2.2L3.05-2.2Q1.3 0.15 1.3 1.43 1.3 2.7 2.25 2.7ZM59.3 0.55L59.3 0.55Q58.5 0.55 57.57 0.08 56.65-0.4 56-1.28 55.35-2.15 55.35-3.15 55.35-4.15 55.8-5.05L55.8-5.05Q56.8-7.15 59.02-9.13 61.25-11.1 63.65-12.5 66.05-13.9 67.45-14.25 68.85-14.6 70.17-14.6 71.5-14.6 72.45-13.93 73.4-13.25 73.4-12.5L73.4-12.5Q73.4-12.25 73.35-12.2 73.3-12.15 73.1-12.25L73.1-12.25Q72.5-13.2 70.62-13.2 68.75-13.2 66.37-11.98 64-10.75 61.9-8.9L61.9-8.9Q60.15-7.25 58.82-5.18 57.5-3.1 57.5-2.15L57.5-2.15Q57.5-0.3 58.55-0.3 59.6-0.3 61.75-2L61.75-2Q65.3-5 66.6-6.4L66.6-6.4Q71.2-11.35 71.55-11.35L71.55-11.35Q72.15-11.35 73-11 73.85-10.65 73.55-10.15L73.55-10.15Q71-6.55 70.55-2.9L70.55-2.9Q70.5-2.45 70.5-1.75 70.5-1.05 70.9-0.6L70.9-0.6Q71.65 0.2 72.95-0.5 74.25-1.2 76.57-3.3 78.9-5.4 80.3-7.4L80.3-7.4Q80.5-7.65 80.75-7.53 81-7.4 81-7.3L81-7.3Q81-6.55 78.62-4.03 76.25-1.5 75-0.6L75-0.6Q72.65 1.15 70.65 1.15L70.65 1.15Q68.75 1.15 68.1-0.75L68.1-0.75Q67.95-1.35 67.95-2.1L67.95-2.1Q67.95-4.35 68.9-6.85L68.9-6.85Q68.7-6.75 67.05-4.85 65.4-2.95 63.22-1.2 61.05 0.55 59.3 0.55ZM96.8-29.25L96.8-29.25Q97.7-29.6 98.35-29.6L98.35-29.6Q100.55-29.6 101.25-28.4L101.25-28.4Q101.65-27.8 101.65-27.35L101.65-27.35Q101.65-23.95 95.95-18.8L95.95-18.8Q90.9-14.35 86.65-11.15L86.65-11.15Q85.25-8 83.75-3.4L83.75-3.4Q85.55-5.6 88.3-8.5L88.3-8.5Q93.85-14.25 96.05-14.25L96.05-14.25Q97.15-14.25 97.2-13.15L97.2-13.15Q97.3-12 96.72-10.95 96.15-9.9 95.65-9L95.65-9Q93.3-5.1 93.3-2.05L93.3-2.05Q93.3-1.05 93.7-0.6L93.7-0.6Q94.4 0.2 95.7-0.5 97-1.2 99.32-3.3 101.65-5.4 103.1-7.4L103.1-7.4Q103.35-7.65 103.57-7.53 103.8-7.4 103.8-7.28 103.8-7.15 103.7-7L103.7-7Q102.95-5.65 101-3.58 99.05-1.5 97.85-0.6L97.85-0.6Q95.55 1.15 93.45 1.15L93.45 1.15Q91.55 1.15 90.9-0.75L90.9-0.75Q90.75-1.2 90.75-1.83 90.75-2.45 90.85-3.15L90.85-3.15Q91.1-5.25 93.5-9.7L93.5-9.7Q94-10.6 94-10.98 94-11.35 93.6-11.35L93.6-11.35Q92.8-11.35 90.5-9.35L90.5-9.35Q88.95-7.9 85.92-3.88 82.9 0.15 82.5 0.4L82.5 0.4Q80.7 1.3 80.27 1.3 79.85 1.3 79.8 1.18 79.75 1.05 79.85 0.85 79.95 0.65 80.65-1.35L80.65-1.35Q83-8 83.85-10.15L83.85-10.15Q82.2-8.05 79.75-5.4L79.75-5.4Q79.35-5 79.35-5.58 79.35-6.15 79.8-6.75 80.25-7.35 81.67-9.08 83.1-10.8 83.7-11.65L83.7-11.65Q83.25-11.9 83.22-12.35 83.2-12.8 83.52-12.98 83.85-13.15 84.6-12.85L84.6-12.85Q85.1-13.55 85.5-14.4L85.5-14.4Q91.45-27.2 96.8-29.25ZM99.6-25.5L99.6-25.5Q100.25-26.7 100.25-27.53 100.25-28.35 99.52-28.35 98.8-28.35 97.6-27.45L97.6-27.45Q92.1-23.25 87.65-13.4L87.65-13.4Q90.9-15.5 94.45-19 98-22.5 99.6-25.5Z" opacity="1" transform="matrix(1,0,0,1,0,0)" fill="#01ff70" class="wordmark-text-0" data-fill-palette-color="primary" id="text-0"></path></svg></g></svg></g></svg></g></svg></g><g transform="matrix(1,0,0,1,0,10.640988635747206)"><svg viewBox="0 0 244.43136 107.7125551026063" height="107.7125551026063" width="244.43136"><g><svg xmlns="http://www.w3.org/2000/svg" xmlns:xlink="http://www.w3.org/1999/xlink" version="1.1" x="0" y="0" viewBox="1.971 12.886 46.196 20.357000000000003" enable-background="new 0 0 50 50" xml:space="preserve" height="107.7125551026063" width="244.43136" class="icon-icon-0" data-fill-palette-color="accent" id="icon-0"><g fill="#483ab6" data-fill-palette-color="accent"><path fill="#483ab6" d="M14.132 33.243h21.89V12.886h-21.89V33.243zM16.251 15.009h17.648v16.115H16.251V15.009z" data-fill-palette-color="accent"></path><path fill="#483ab6" d="M10.554 16.246c-0.414-0.414-1.086-0.414-1.499 0l-7.084 7.083 7.084 7.084c0.208 0.207 0.479 0.311 0.75 0.311 0.271 0 0.543-0.106 0.752-0.311 0.412-0.413 0.412-1.086 0-1.499l-5.586-5.585 5.586-5.584C10.97 17.329 10.97 16.658 10.554 16.246z" data-fill-palette-color="accent"></path><path fill="#483ab6" d="M39.583 16.101c-0.413 0.415-0.413 1.085 0 1.5l5.583 5.583-5.583 5.583c-0.413 0.416-0.413 1.09 0 1.501 0.208 0.209 0.481 0.31 0.751 0.31 0.272 0 0.543-0.104 0.751-0.31l7.082-7.083-7.082-7.083C40.669 15.686 39.997 15.686 39.583 16.101z" data-fill-palette-color="accent"></path></g></svg></g></svg></g></svg></g><defs></defs></svg><rect width="395.52" height="76.10325578697879" fill="none" stroke="none" visibility="hidden"></rect></g></svg></g></svg>